<svg xmlns="http://www.w3.org/2000/svg" xmlns:xlink="http://www.w3.org/1999/xlink" width="1000" zoomAndPan="magnify" viewBox="0 0 750 749.999995" height="1000" preserveAspectRatio="xMidYMid meet" version="1.0"><defs><g/><clipPath id="99f0b32dab"><path d="M 28 28 L 722 28 L 722 722 L 28 722 Z M 28 28 " clip-rule="nonzero"/></clipPath><clipPath id="ea04e1093c"><path d="M 424.320312 49.320312 L 700.679688 325.679688 C 713.761719 338.761719 721.109375 356.5 721.109375 375 C 721.109375 393.5 713.761719 411.238281 700.679688 424.320312 L 424.320312 700.679688 C 397.082031 727.917969 352.917969 727.917969 325.679688 700.679688 L 49.320312 424.320312 C 22.082031 397.082031 22.082031 352.917969 49.320312 325.679688 L 325.679688 49.320312 C 352.917969 22.082031 397.082031 22.082031 424.320312 49.320312 Z M 424.320312 49.320312 " clip-rule="nonzero"/></clipPath></defs><g clip-path="url(#99f0b32dab)"><g clip-path="url(#ea04e1093c)"><rect x="-75" width="900" fill="#ffffff" y="-74.999999" height="899.999994" fill-opacity="1"/></g></g><path stroke-linecap="butt" transform="matrix(0.867335, 0, 0, 0.867335, 157.684493, 218.879774)" fill="none" stroke-linejoin="miter" d="M 546.572968 268.777757 C 554.670694 268.777757 558.719557 279.870471 558.719557 302.046891 C 558.719557 314.017835 553.675367 328.569422 543.582484 345.706156 C 533.4896 362.721289 520.406232 378.326752 504.327877 392.527047 C 488.249522 406.727342 470.351655 418.405543 450.638781 427.557144 C 430.921403 436.596152 411.676918 441.113405 392.900822 441.113405 C 364.617329 441.113405 345.021552 434.069554 334.104484 419.99086 C 323.309017 405.790564 317.909031 384.902214 317.909031 357.321304 C 317.909031 329.627801 328.767551 282.099822 350.475582 214.737369 C 284.05441 211.922531 235.706751 210.51286 205.4281 210.51286 L 195.393766 210.51286 C 186.710553 263.792115 182.368947 319.769112 182.368947 378.443849 C 182.368947 404.380893 172.510258 422.161663 152.79288 431.781653 C 143.758375 436.12326 135.016614 440.172123 126.567596 443.928243 C 118.114074 447.80146 109.07957 449.738069 99.455075 449.738069 C 75.400595 449.738069 63.371103 428.142631 63.371103 384.960762 C 63.371103 341.657293 73.229792 286.148685 92.942666 218.43494 C 71.820121 220.781389 53.219671 223.186387 37.141315 225.649933 C 21.06296 227.996382 8.447982 229.171858 -0.70362 229.171858 C -9.859725 229.171858 -14.435526 226.766861 -14.435526 221.956865 C -14.435526 207.522376 -2.640229 192.849188 20.945863 177.946309 C 45.004847 163.04343 77.454301 151.77507 118.294224 144.150237 C 163.47125 29.259804 218.745662 -47.429897 284.112959 -85.923371 C 308.171943 -100.357861 333.636095 -107.572854 360.509917 -107.572854 C 408.623382 -107.104465 443.360736 -94.079646 464.721979 -68.493893 C 486.078719 -43.029742 496.874186 -9.292218 497.10838 32.723181 C 497.342575 74.734077 484.493402 129.423004 458.560862 196.780953 C 448.936367 222.717998 440.01896 246.245541 431.804136 267.372589 C 423.70641 288.495135 419.657547 305.568817 419.657547 318.593635 C 419.657547 331.622958 420.594325 341.477143 422.472385 348.169702 C 424.467542 354.857758 429.043343 358.204037 436.204291 358.204037 C 449.22911 358.204037 479.741955 333.203771 527.738323 283.212246 C 536.421535 273.592256 542.69975 268.777757 546.572968 268.777757 Z M 392.900822 54.021372 C 392.900822 12.127574 377.290856 -8.819325 346.075427 -8.819325 C 314.391609 -8.819325 287.103443 4.556785 264.219935 31.31351 C 241.453524 57.953138 223.794356 93.62727 211.237926 138.340411 L 374.944407 140.452665 C 386.91535 102.076288 392.900822 73.265857 392.900822 54.021372 Z M 392.900822 54.021372 " stroke="#e6f0ff" stroke-width="54.07695" stroke-opacity="1" stroke-miterlimit="4"/><g fill="#006bff" fill-opacity="1"><g transform="translate(157.684493, 599.639627)"><g><path d="M 474.015625 -147.578125 C 481.109375 -147.578125 484.65625 -137.988281 484.65625 -118.8125 C 484.65625 -108.394531 480.273438 -95.785156 471.515625 -80.984375 C 462.765625 -66.179688 451.40625 -52.628906 437.4375 -40.328125 C 423.46875 -28.035156 407.9375 -17.925781 390.84375 -10 C 373.75 -2.082031 357.078125 1.875 340.828125 1.875 C 316.222656 1.875 299.226562 -4.269531 289.84375 -16.5625 C 280.46875 -28.863281 275.78125 -47 275.78125 -70.96875 C 275.78125 -94.945312 285.160156 -136.117188 303.921875 -194.484375 C 246.390625 -196.984375 204.492188 -198.234375 178.234375 -198.234375 L 169.46875 -198.234375 C 161.96875 -151.960938 158.21875 -103.394531 158.21875 -52.53125 C 158.21875 -30.019531 149.671875 -14.59375 132.578125 -6.25 C 124.648438 -2.5 117.039062 1.039062 109.75 4.375 C 102.457031 7.707031 94.640625 9.375 86.296875 9.375 C 65.453125 9.375 55.03125 -9.382812 55.03125 -46.90625 C 55.03125 -84.425781 63.578125 -132.578125 80.671875 -191.359375 C 62.328125 -189.273438 46.171875 -187.191406 32.203125 -185.109375 C 18.234375 -183.023438 7.289062 -181.984375 -0.625 -181.984375 C -8.539062 -181.984375 -12.5 -184.066406 -12.5 -188.234375 C -12.5 -200.742188 -2.285156 -213.457031 18.140625 -226.375 C 38.984375 -239.300781 67.125 -249.097656 102.5625 -255.765625 C 141.75 -355.410156 189.691406 -421.910156 246.390625 -455.265625 C 267.234375 -467.765625 289.328125 -474.015625 312.671875 -474.015625 C 354.367188 -473.597656 384.492188 -462.34375 403.046875 -440.25 C 421.597656 -418.15625 430.976562 -388.867188 431.1875 -352.390625 C 431.394531 -315.910156 420.242188 -268.488281 397.734375 -210.125 C 389.390625 -187.601562 381.671875 -167.171875 374.578125 -148.828125 C 367.492188 -130.484375 363.953125 -115.679688 363.953125 -104.421875 C 363.953125 -93.171875 364.785156 -84.628906 366.453125 -78.796875 C 368.128906 -72.960938 372.09375 -70.046875 378.34375 -70.046875 C 389.601562 -70.046875 416.078125 -91.722656 457.765625 -135.078125 C 465.265625 -143.410156 470.679688 -147.578125 474.015625 -147.578125 Z M 340.828125 -333.9375 C 340.828125 -370.207031 327.273438 -388.34375 300.171875 -388.34375 C 272.660156 -388.34375 249 -376.773438 229.1875 -353.640625 C 209.382812 -330.503906 194.066406 -299.550781 183.234375 -260.78125 L 325.1875 -258.90625 C 335.613281 -292.25 340.828125 -317.257812 340.828125 -333.9375 Z M 340.828125 -333.9375 "/></g></g></g></svg>