<svg xmlns="http://www.w3.org/2000/svg" xmlns:xlink="http://www.w3.org/1999/xlink" width="1000" zoomAndPan="magnify" viewBox="0 0 750 482.999988" height="644" preserveAspectRatio="xMidYMid meet" version="1.0"><path fill="#ffffff" d="M 162.234375 403.070312 C 155.425781 403.070312 148.628906 400.476562 143.429688 395.277344 L 10.453125 262.296875 C 0.0664062 251.914062 0.0664062 235.078125 10.453125 224.691406 L 143.429688 91.710938 C 153.816406 81.328125 170.652344 81.328125 181.039062 91.710938 C 191.421875 102.097656 191.421875 118.933594 181.039062 129.320312 L 66.863281 243.496094 L 181.039062 357.671875 C 191.421875 368.054688 191.421875 384.890625 181.039062 395.277344 C 175.835938 400.476562 169.042969 403.070312 162.234375 403.070312 Z M 295.210938 482.855469 C 292.113281 482.855469 288.949219 482.3125 285.878906 481.152344 C 272.128906 475.996094 265.144531 460.664062 270.304688 446.914062 L 429.878906 21.378906 C 435.054688 7.617188 450.371094 0.664062 464.121094 5.820312 C 477.871094 10.980469 484.855469 26.3125 479.695312 40.0625 L 320.121094 465.597656 C 316.105469 476.273438 305.984375 482.855469 295.210938 482.855469 Z M 587.765625 403.070312 C 580.957031 403.070312 574.164062 400.476562 568.960938 395.277344 C 558.578125 384.890625 558.578125 368.054688 568.960938 357.671875 L 683.136719 243.496094 L 568.960938 129.320312 C 558.578125 118.933594 558.578125 102.097656 568.960938 91.710938 C 579.347656 81.328125 596.183594 81.328125 606.570312 91.710938 L 739.546875 224.691406 C 749.933594 235.078125 749.933594 251.914062 739.546875 262.296875 L 606.570312 395.277344 C 601.371094 400.476562 594.574219 403.070312 587.765625 403.070312 Z M 587.765625 403.070312 " fill-opacity="1" fill-rule="nonzero"/></svg>