<svg xmlns="http://www.w3.org/2000/svg" xmlns:xlink="http://www.w3.org/1999/xlink" width="869" zoomAndPan="magnify" viewBox="0 0 651.75 483.749988" height="645" preserveAspectRatio="xMidYMid meet" version="1.0"><path fill="#ffffff" d="M 392.316406 6.871094 C 372.550781 1.183594 351.824219 12.679688 346.101562 32.53125 L 231.222656 434.601562 C 225.527344 454.367188 237.03125 475.09375 256.859375 480.8125 C 260.285156 481.800781 263.738281 482.269531 267.140625 482.269531 C 283.359375 482.269531 298.34375 471.5625 303.074219 455.15625 L 417.949219 53.082031 C 423.652344 33.320312 412.144531 12.59375 392.316406 6.871094 Z M 392.316406 6.871094 " fill-opacity="1" fill-rule="nonzero"/><path fill="#ffffff" d="M 635.539062 217.414062 L 535.015625 116.890625 C 520.480469 102.355469 496.84375 102.320312 482.265625 116.800781 C 482.253906 116.816406 482.234375 116.832031 482.21875 116.847656 C 482.207031 116.863281 482.1875 116.878906 482.175781 116.890625 C 467.695312 131.46875 467.726562 155.105469 482.261719 169.640625 L 556.324219 243.789062 L 482.175781 317.941406 C 467.605469 332.507812 467.605469 356.214844 482.175781 370.78125 C 489.222656 377.832031 498.609375 381.71875 508.597656 381.71875 C 518.582031 381.71875 527.964844 377.832031 535.019531 370.78125 L 635.542969 270.257812 C 650.105469 255.6875 650.105469 231.984375 635.539062 217.414062 Z M 635.539062 217.414062 " fill-opacity="1" fill-rule="nonzero"/><path fill="#ffffff" d="M 177.929688 143.3125 C 177.929688 133.328125 174.042969 123.945312 166.988281 116.890625 C 152.421875 102.324219 128.714844 102.316406 114.148438 116.890625 L 13.625 217.414062 C -0.945312 231.984375 -0.945312 255.6875 13.625 270.257812 L 114.148438 370.78125 C 121.199219 377.832031 130.585938 381.71875 140.570312 381.71875 C 150.554688 381.71875 159.9375 377.832031 166.992188 370.78125 C 174.042969 363.730469 177.933594 354.34375 177.933594 344.359375 C 177.933594 334.375 174.046875 324.992188 166.992188 317.9375 L 92.851562 243.878906 L 166.996094 169.730469 C 174.042969 162.679688 177.929688 153.296875 177.929688 143.3125 Z M 177.929688 143.3125 " fill-opacity="1" fill-rule="nonzero"/></svg>